<svg xmlns="http://www.w3.org/2000/svg" width="23.019" height="22.805" viewBox="0 0 23.019 22.805"><g transform="translate(0 0)"><path d="M105.566,57.21H90.06a2.487,2.487,0,0,0-2.154,3.731l.387.671h14.742a2.484,2.484,0,0,1,2.211,3.614l2.474-4.285A2.487,2.487,0,0,0,105.566,57.21Z" transform="translate(-85.038 -57.21)" fill="#52b5e8"/><path d="M70.7,125.245a2.484,2.484,0,0,1-4.2-.157l-5.06-8.764-2.306-3.994H58.37a2.487,2.487,0,0,0-2.154,3.731L63.97,129.49a2.488,2.488,0,0,0,4.308,0l4.756-8.238,3-5.191c.022-.038.038-.078.057-.117l-5.279,9.144C70.776,125.144,70.738,125.194,70.7,125.245Z" transform="translate(-55.879 -107.928)" fill="#eb5b5a"/><path d="M66.983,77.55a2.5,2.5,0,0,1-.1-2.29l-2.05,3.7a2.451,2.451,0,0,1,1.775-.743h.764Z" transform="translate(-64.115 -73.819)" fill="#52b5e8"/><path d="M111.382,112.33H96.64l2.306,3.994,5.06,8.764a2.484,2.484,0,0,0,4.2.157c.035-.052.073-.1.105-.157l5.279-9.144A2.484,2.484,0,0,0,111.382,112.33Z" transform="translate(-93.385 -107.928)" fill="#6e67ac"/></g></svg>